<svg width="512" height="470" viewBox="0 0 512 470" fill="none" xmlns="http://www.w3.org/2000/svg">
<path d="M490.964 85.4396H90.6423L84.6917 19.1476C83.7184 8.30666 74.6328 0 63.7488 0H21.027C9.41408 0 0 9.41408 0 21.027C0 32.6399 9.41408 42.054 21.027 42.054H44.5251C57.3666 185.12 24.178 -184.652 68.7092 311.489C70.4254 330.908 80.9178 351.98 98.993 366.298C66.4042 407.915 96.1804 469.269 149.191 469.269C193.19 469.269 224.223 425.387 209.134 383.825H324.218C309.149 425.334 340.114 469.269 384.161 469.269C419.312 469.269 447.91 440.671 447.91 405.52C447.91 370.369 419.312 341.772 384.161 341.772H149.334C133.361 341.772 119.442 332.135 113.435 318.095L449.474 298.346C458.648 297.807 466.409 291.371 468.639 282.455L511.364 111.566C514.676 98.3152 504.646 85.4396 490.964 85.4396V85.4396ZM149.191 427.215C137.23 427.215 127.498 417.483 127.498 405.52C127.498 393.558 137.23 383.825 149.191 383.825C161.154 383.825 170.886 393.558 170.886 405.52C170.886 417.483 161.154 427.215 149.191 427.215ZM384.16 427.215C372.198 427.215 362.465 417.483 362.465 405.52C362.465 393.558 372.198 383.825 384.16 383.825C396.122 383.825 405.855 393.558 405.855 405.52C405.855 417.483 396.122 427.215 384.16 427.215ZM431.587 257.271L107.774 276.301L94.4172 127.493H464.033L431.587 257.271Z" fill="#FF6900"/>
</svg>
